<svg xmlns="http://www.w3.org/2000/svg" xmlns:xlink="http://www.w3.org/1999/xlink" viewBox="0,0,256,256" width="24px" height="24px" fill-rule="nonzero"><g transform="translate(-24,-24) scale(1.1875,1.1875)"><g fill="#ffffff" fill-rule="nonzero" stroke="none" stroke-width="1" stroke-linecap="butt" stroke-linejoin="miter" stroke-miterlimit="10" stroke-dasharray="" stroke-dashoffset="0" font-family="none" font-weight="none" font-size="none" text-anchor="none" style="mix-blend-mode: normal"><g transform="translate(256,0) rotate(90) scale(8,8)"><path d="M16,3c-7.16797,0 -13,5.83203 -13,13c0,7.16797 5.83203,13 13,13c7.16797,0 13,-5.83203 13,-13c0,-7.16797 -5.83203,-13 -13,-13zM16,5c6.08594,0 11,4.91406 11,11c0,2.72656 -0.98828,5.20703 -2.625,7.125l-15.34375,-15.65625c1.89453,-1.55078 4.32031,-2.46875 6.96875,-2.46875zM7.625,8.875l15.34375,15.65625c-1.89453,1.55078 -4.32031,2.46875 -6.96875,2.46875c-6.08594,0 -11,-4.91406 -11,-11c0,-2.72656 0.98828,-5.20703 2.625,-7.125z"></path></g></g></g></svg>