<svg width="24" height="24" viewBox="0 0 24 24" fill="none" xmlns="http://www.w3.org/2000/svg">
<path d="M16.94 6.91L15.53 8.36C16.43 9.3 16.99 10.58 16.99 12C16.99 13.42 16.43 14.71 15.53 15.64L16.94 17.09C18.21 15.78 18.99 13.98 18.99 12C18.99 10.02 18.21 8.21 16.94 6.91ZM19.77 4L18.36 5.45C19.98 7.13 21 9.44 21 12.01C21 14.58 19.99 16.89 18.36 18.55L19.76 20C21.77 17.96 23 15.13 23 12.01C23 8.88 21.77 6.05 19.77 4ZM7.06 6.91C5.79 8.21 5.01 10.01 5.01 12C5.01 13.99 5.79 15.79 7.06 17.09L8.47 15.64C7.57 14.7 7.01 13.42 7.01 12C7.01 10.58 7.57 9.29 8.47 8.36L7.06 6.91ZM5.64 5.45L4.24 4C2.23 6.04 1 8.87 1 11.99C1 15.12 2.23 17.95 4.23 20L5.64 18.55C4.02 16.87 3 14.56 3 11.99C3 9.42 4.01 7.11 5.64 5.45V5.45Z" fill="#909090"/>
<path d="M12 15C13.6569 15 15 13.6569 15 12C15 10.3431 13.6569 9 12 9C10.3431 9 9 10.3431 9 12C9 13.6569 10.3431 15 12 15Z" fill="#909090"/>
</svg>
