<?xml version="1.0" standalone="no"?>
<!DOCTYPE svg PUBLIC "-//W3C//DTD SVG 20010904//EN"
 "http://www.w3.org/TR/2001/REC-SVG-20010904/DTD/svg10.dtd">
<svg version="1.0" xmlns="http://www.w3.org/2000/svg"
 width="88.000000pt" height="88.000000pt" viewBox="0 0 88.000000 88.000000"
 preserveAspectRatio="xMidYMid meet">

<g transform="translate(0.000000,88.000000) scale(0.100000,-0.100000)"
fill="#000000" stroke="none">
<path d="M0 440 l0 -440 440 0 440 0 0 440 0 440 -440 0 -440 0 0 -440z m417
206 c4 -4 4 -7 -2 -6 -37 8 -52 -1 -49 -27 2 -26 2 -27 -11 -9 -8 10 -12 23
-9 28 3 5 0 7 -7 6 -6 -2 -14 3 -16 10 -3 9 8 11 41 9 25 -1 49 -6 53 -11z"/>
</g>
</svg>
